<svg style="display: none;">
    <symbol id="logo-svg" viewBox="0 0 45 45" fill="none" xmlns="http://www.w3.org/2000/svg">
        <path fill-rule="evenodd" clip-rule="evenodd" d="M0 22.25C0 9.96178 9.96198 0 22.2504 0C34.538 0 44.5 9.96178 44.5 22.25C44.5 25.0644 43.9774 27.7567 43.0241 30.2353C41.3767 27.6868 38.5104 26 35.25 26C30.1414 26 26 30.1414 26 35.25C26 38.5104 27.6868 41.3768 30.2354 43.0241C27.7569 43.9775 25.0647 44.5 22.2504 44.5C9.96198 44.5 0 34.5382 0 22.25ZM30.2354 43.0241C31.6801 43.9579 33.4018 44.5 35.25 44.5C40.3586 44.5 44.5 40.3586 44.5 35.25C44.5 33.4017 43.9579 31.6801 43.0241 30.2353C40.7682 36.1002 36.1001 40.7682 30.2354 43.0241Z" fill="#0EC261"/>
    </symbol>
    <symbol id="search-svg" width="15" height="14" viewBox="0 0 15 14" fill="none" xmlns="http://www.w3.org/2000/svg">
        <path fill-rule="evenodd" clip-rule="evenodd" d="M9.87336 8.80503H10.5057L14.5 12.8073L13.3073 14L9.30503 10.0057V9.37336L9.08891 9.14923C8.17639 9.93368 6.99171 10.4059 5.70297 10.4059C2.82933 10.4059 0.5 8.07662 0.5 5.20297C0.5 2.32933 2.82933 0 5.70297 0C8.57662 0 10.9059 2.32933 10.9059 5.20297C10.9059 6.49171 10.4337 7.67639 9.64923 8.58891L9.87336 8.80503ZM2.19702 5.30302C2.19702 7.29837 3.80773 8.90908 5.80308 8.90908C7.79844 8.90908 9.40914 7.29837 9.40914 5.30302C9.40914 3.30767 7.79844 1.69696 5.80308 1.69696C3.80773 1.69696 2.19702 3.30767 2.19702 5.30302Z" fill="#CACEDB"/>
    </symbol>
    <symbol id="dropdown-svg" width="9" height="5" viewBox="0 0 9 5" fill="none" xmlns="http://www.w3.org/2000/svg">
        <path d="M0 0.5L4.25 5L8.5 0.5H0Z" fill="#ABB6BF"/>
    </symbol>
    <symbol id="notification-svg" width="18" height="21" viewBox="0 0 18 21" fill="none" xmlns="http://www.w3.org/2000/svg">
        <path fill-rule="evenodd" clip-rule="evenodd" d="M15.375 9.04949V14.3727L17.5 16.502V17.5667H0.5V16.502L2.625 14.3727V9.04949C2.625 5.77038 4.35687 3.04489 7.40625 2.32093V1.59697C7.40625 0.713313 8.11812 0 9 0C9.88188 0 10.5938 0.713313 10.5938 1.59697V2.32093C13.6325 3.04489 15.375 5.78103 15.375 9.04949ZM11.2667 18.7C11.2667 19.9467 10.2467 20.9667 9 20.9667C7.742 20.9667 6.73334 19.9467 6.73334 18.7H11.2667Z" fill="#818EA3"/>
    </symbol>
    <symbol id="edit-card-svg" width="12" height="12" viewBox="0 0 12 12" xmlns="http://www.w3.org/2000/svg">
        <path fill-rule="evenodd" clip-rule="evenodd" d="M11.3213 2.10853C11.5596 2.34683 11.5596 2.73177 11.3213 2.97007L10.2031 4.08825L7.91174 1.7969L9.02992 0.678725C9.26822 0.440425 9.65317 0.440425 9.89147 0.678725L11.3213 2.10853ZM0.5 11.5V9.20865L7.25795 2.4507L9.5493 4.74205L2.79135 11.5H0.5Z"/>
    </symbol>
    <symbol id="auto-list-svg" width="13" height="10" viewBox="0 0 13 10" xmlns="http://www.w3.org/2000/svg">
        <path fill-rule="evenodd" clip-rule="evenodd" d="M0.5 0.5V1.85714H5.83333V0.5H0.5ZM5.83333 4.57142H0.5V3.21428H5.83333V4.57142ZM0.5 7.28572H5.83333V5.92857H0.5V7.28572ZM0.5 10H5.83333V8.64285H0.5V10ZM12.5 0.5H7.16663V10H12.5V0.5Z"/>
    </symbol>
    <svg id="order-list-svg" width="9" height="10" viewBox="0 0 9 10" xmlns="http://www.w3.org/2000/svg">
        <path fill-rule="evenodd" clip-rule="evenodd" d="M5.5 0H1.5C0.95 0 0.505 0.45 0.505 1L0.5 9C0.5 9.55 0.945 10 1.495 10H7.5C8.05 10 8.5 9.55 8.5 9V3L5.5 0ZM6.5 7H5V8.5H4V7H2.5V6H4V4.5H5V6H6.5V7ZM5 0.75V3.5H7.75L5 0.75Z"/>
    </svg>
</svg>
