<svg width="22" height="22" viewBox="0 0 22 22" fill="none" xmlns="http://www.w3.org/2000/svg">
<path fill-rule="evenodd" clip-rule="evenodd" d="M0 11.25C0 5.31299 4.81309 0.5 10.7502 0.5C16.6869 0.5 21.5 5.31299 21.5 11.25C21.5 12.6098 21.2475 13.9106 20.7869 15.1081C19.991 13.8768 18.6061 13.0618 17.0309 13.0618C14.5627 13.0618 12.5618 15.0627 12.5618 17.5309C12.5618 19.1061 13.3768 20.491 14.6081 21.2869C13.4106 21.7475 12.1099 22 10.7502 22C4.81309 22 0 17.187 0 11.25ZM14.6081 21.2869C15.3061 21.7381 16.1379 22 17.0309 22C19.4991 22 21.5 19.9991 21.5 17.5309C21.5 16.6379 21.2381 15.8061 20.7869 15.1081C19.697 17.9417 17.4416 20.197 14.6081 21.2869Z" fill="#0EC261"/>
</svg>
